inDegrees=yes
name=teste1.mot
DataType=double
version=3
OpenSimVersion=4.4-2022-07-23-0e9fedc
endheader
time	q1	q2
4.490625143051147	108.2323289617854	-58.68550772455599
4.495644092559814	108.2323239283466	-57.9375676542526
4.504616022109985	108.2323223071298	-56.93413062024962
4.508626937866211	108.5678575989397	-57.26965558865331
4.514648199081421	108.5678527341176	-56.54023896284428
4.522644996643066	108.8579038235723	-56.83028236528107
4.528621196746826	108.8579014386997	-56.47864176317804
4.536620140075684	108.8579014386997	-56.47864176317804
4.543617010116577	108.8549210226548	-56.32885134274225
4.55262017250061	108.8549213169824	-56.22737392723987
4.562647104263306	108.8549203214985	-55.9790049563606
4.567625045776367	108.7453860981588	-55.86946798098641
4.572623014450073	108.7453846855178	-55.66595582048934
4.577620983123779	108.5265832317042	-55.44715208501987
4.582640886306763	108.5265816689167	-55.22290344527222
4.586621046066284	108.2458163984332	-54.94213565555904
4.590620040893555	108.2458138241728	-54.56717345220016
4.597630023956299	107.9948937788301	-54.31624928523823
4.601643085479736	107.994889390587	-53.66312945077765
4.608618021011353	107.8626307037278	-53.53086382637159
4.614615201950073	107.8626256703826	-52.7744521032258
4.618611097335815	108.1226038981304	-53.03442245908099
4.624655961990356	108.1226001940813	-52.47509888668228
4.628612995147705	108.4740670235307	-52.82655984036573
4.634630918502808	108.474063929855	-52.35955742342249
4.642621040344238	108.4740611910289	-51.46282759683114
4.646624088287354	108.6650818503597	-51.65383912414482
4.65262508392334	108.6650766780477	-50.85913515022222
4.657617092132568	108.6650781963781	-50.30225627947765
4.661652088165283	109.5020221781735	-51.13919473115945
4.670637130737305	109.5020198764346	-50.81946305258869
4.675616025924683	109.7021338345192	-51.01957361876867
4.68164587020874	109.7021311675806	-50.61266459649837
4.685617923736572	109.9130647577245	-50.82359390751265
4.689616918563843	109.9130629474291	-50.54837268560026
4.693618059158325	110.2194575572327	-50.8547643988561
4.698616027832031	110.2194541207762	-50.32394578372196
4.703617095947266	110.5465081126777	-50.65099429919374
4.71161413192749	110.5465038041989	-49.97905469147283
4.715618133544922	110.8856671715439	-50.3182112304281
4.719613075256348	110.8856632726036	-49.70897466445717
4.723618984222412	111.3970025157097	-50.22030776434561
4.727617025375366	111.396998928225	-49.66091595644333
4.73261284828186	111.9030620629028	-50.16697346192829
4.738652944564819	111.9030587447639	-49.64958841507293
4.743640184402466	112.1446198354385	-49.89114422047372
4.747666120529175	112.1446154609509	-49.20035229781277
4.751632928848267	112.641106369599	-49.69683631679239
4.756602048873901	112.6411035263678	-49.25637156524227
4.761602163314819	112.9084813923337	-49.52374489790095
4.766602993011475	112.9084796313762	-49.25133932992907
4.770594120025635	113.1776623842745	-49.52051924652752
4.778598070144653	113.1776606435287	-49.25145226281398
4.783618211746216	113.5612142128713	-49.63500305587133
4.788614988327026	113.5612129958834	-49.44779415187456
4.794618844985962	113.7927705271204	-49.67934972072793
4.801615953445435	113.7927696450872	-49.54319218861524
4.806617021560669	113.9953439786422	-49.74576509124221
4.810618877410889	113.995342547716	-49.52552322853523
4.81561803817749	114.1420966774586	-49.67227503622923
4.820616960525513	114.1420944927053	-49.33521101919366
4.824610948562622	114.2470934643153	-49.44020645937205
4.829620122909546	114.2470922901543	-49.26080815240369
4.833617925643921	114.3835030717881	-49.39721703684535
4.837610006332397	114.3835015201163	-49.15886755153448
4.841608047485352	114.6367606944637	-49.41212423428982
4.850610971450806	114.6367587892804	-49.11696395583108
4.857616901397705	114.9363782431593	-49.41658034686714
4.863613128662109	114.9363763443792	-49.12145222212803
4.870617866516113	114.9363764881332	-48.84908011189055
4.875615119934082	115.1969738241416	-49.10967461636849
4.879615068435669	115.1969722013495	-48.85764863040828
4.883611917495728	115.5576398262834	-49.21831365903995
4.888609170913696	115.5576387582114	-49.05259993986787
4.894613981246948	115.7882686166124	-49.28322807078555
4.898612022399902	115.7882673585567	-49.08796268573934
4.903611898422241	116.0007684814641	-49.30046177014728
4.909610986709595	116.0007675305748	-49.15291402199809
4.920620203018188	116.0007674933598	-48.99968379616841
4.929609060287476	116.0007680048675	-48.92480158606043
4.935635089874268	116.1984684351601	-49.12250123982906
4.942614078521729	116.3800485784676	-49.30408138061049
4.952615976333618	116.3800476836304	-49.16556475243083
4.95760703086853	116.5564776644242	-49.34199328010482
4.961613893508911	116.5564768728225	-49.21940655993463
4.968615055084229	116.7404564758594	-49.40338487846158
4.972614049911499	116.7404555069083	-49.25351322897364
4.97661304473877	117.2567206387836	-49.76977687753534
4.980614900588989	117.2567196869988	-49.62569062428432
4.986613988876343	117.4594825951164	-49.82845202364553
4.99061107635498	117.4594816940976	-49.68889233372138
4.994613170623779	117.6606538768005	-49.89006305497542
5.002624988555908	117.6606528722115	-49.73455051750684
5.008611917495727	117.6606529387997	-49.58935803300606
5.014613151550293	117.8614632432596	-49.79016681630069
5.019617080688477	117.8614626090665	-49.69147081818369
5.023612022399902	118.4578388088856	-50.28784611192448
5.031607151031494	118.457837665766	-50.11777566476735
5.037613153457642	118.604759110997	-50.2646953205192
5.0416100025177	118.6047586147083	-50.18758861102131
5.046610116958618	118.7494193719058	-50.33224855903708
5.05161190032959	118.7494188599389	-50.25281778957189
5.056627035140991	118.9044622303761	-50.40786032725945
5.063608884811401	118.9044617941956	-50.33982635435671
5.067608833312988	119.0809136911506	-50.51627754293484
5.074609994888306	119.0809132639761	-50.44937518697244
5.079606056213379	119.2652256560383	-50.63368688380818
5.083608865737915	119.2652251171592	-50.54975822761656
5.087604999542236	119.4458727100974	-50.73040494315702
5.093612194061279	119.4458717489319	-50.58193623413447
5.099614143371582	119.8733076020022	-51.00937058322826
5.103608131408691	119.8733071268069	-50.93569390468213
5.107602119445801	120.0303269266664	-51.0927129333256
5.111610889434814	120.030326550912	-51.03378764899151
5.117609024047852	120.1803383503223	-51.183798833555
5.124611139297485	120.1968871166046	-51.15978363496623
5.129605054855347	120.3301613930456	-51.28485670096476
5.1356041431427	120.3301610735413	-51.23273822442657
5.144610166549683	120.3301610580919	-51.17829679142995
5.148611068725586	120.484921068539	-51.33305623542553
5.15260910987854	120.4849205280596	-51.24923491565726
5.156607151031494	120.6461012578053	-51.41041476592872
5.161608934402466	120.6461007400538	-51.32999445931055
5.16960597038269	120.6461006801933	-51.24052783825833
5.174622058868408	120.8110998751305	-51.40552609342448
5.179608106613159	120.8277792144354	-51.38884676062722
5.183608055114746	120.9732178901326	-51.52572814743675
